<svg xmlns="http://www.w3.org/2000/svg" xmlns:xlink="http://www.w3.org/1999/xlink" width="1860" height="494.2"><rect width="1860" height="494.2" rx="5" ry="5" class="a"/><svg y="0%" x="0%"><circle cx="20" cy="20" r="6" fill="#ff5f58"/><circle cx="40" cy="20" r="6" fill="#ffbd2e"/><circle cx="60" cy="20" r="6" fill="#18c132"/></svg><svg height="434.2" viewBox="0 0 182 43.42" width="1820" x="15" xmlns="http://www.w3.org/2000/svg" xmlns:xlink="http://www.w3.org/1999/xlink" y="50"><style>@keyframes i{0%{transform:translateX(-182px)}6.5%{transform:translateX(-364px)}7.1%{transform:translateX(-546px)}7.8%{transform:translateX(-728px)}9%{transform:translateX(-910px)}9.9%{transform:translateX(-1092px)}11.2%{transform:translateX(-1274px)}11.7%{transform:translateX(-1456px)}15.2%{transform:translateX(-1638px)}16.3%{transform:translateX(-1820px)}17%{transform:translateX(-2002px)}17.5%{transform:translateX(-2184px)}18.4%{transform:translateX(-2366px)}19.6%{transform:translateX(-2548px)}21.6%{transform:translateX(-2730px)}22.7%{transform:translateX(-2912px)}23.3%{transform:translateX(-3094px)}24.6%{transform:translateX(-3276px)}25.5%{transform:translateX(-3458px)}26.4%{transform:translateX(-3640px)}27.1%{transform:translateX(-3822px)}28.8%{transform:translateX(-4004px)}30.7%{transform:translateX(-4186px)}31.2%{transform:translateX(-4368px)}32.5%{transform:translateX(-4550px)}33.5%{transform:translateX(-4732px)}34.6%{transform:translateX(-4914px)}35.6%{transform:translateX(-5096px)}36.3%{transform:translateX(-5278px)}37.6%{transform:translateX(-5460px)}39.4%{transform:translateX(-5642px)}58.4%{transform:translateX(-6006px)}58.8%{transform:translateX(-6370px)}59.5%{transform:translateX(-8736px)}59.8%{transform:translateX(-8918px)}60.6%{transform:translateX(-9100px)}to{transform:translateX(-9282px)}}.a{fill:#282d35}.f{fill:#b9c0cb}</style><g font-size="1.67" font-family="Monaco,Consolas,Menlo,'Bitstream Vera Sans Mono','Powerline Symbols',monospace"><defs><symbol id="1"><text y="1.67" class="f">[root@obpc</text><text x="11.022" y="1.67" class="f">~]#</text></symbol><symbol id="2"><text y="1.67" class="f">[root@obpc</text><text x="11.022" y="1.67" class="f">~]#</text><text x="15.03" y="1.67" class="f">vmw-cli</text></symbol><symbol id="3"><text y="1.67" class="f">[root@obpc</text><text x="11.022" y="1.67" class="f">~]#</text><text x="15.03" y="1.67" class="f">vmw-cli</text><text x="23.046" y="1.67" class="f">find</text></symbol><symbol id="4"><text y="1.67" class="f">[root@obpc</text><text x="11.022" y="1.67" class="f">~]#</text><text x="15.03" y="1.67" class="f">vmw-cli</text><text x="23.046" y="1.67" class="f">find</text><text x="28.056" y="1.67" class="f">network-insight</text></symbol><symbol id="5"><text y="1.67" class="f">Index</text><text x="6.012" y="1.67" class="f">[allGroups.json]</text><text x="23.046" y="1.67" class="f">not</text><text x="27.054" y="1.67" class="f">found</text><text x="33.066" y="1.67" class="f">-</text><text x="35.07" y="1.67" class="f">downloading...</text></symbol><symbol id="6"><text y="1.67" class="f">[https://raw.githubusercontent.com/apnex/myvmw2/master/index/allGroups.json]</text><text x="77.154" y="1.67" class="f">downloading...</text><text x="92.184" y="1.67" class="f">[==============================================&gt;</text><text x="143.286" y="1.67" class="f">]</text><text x="145.29" y="1.67" class="f">93%</text><text x="149.298" y="1.67" class="f">0.0s</text><text x="154.308" y="1.67" class="f">1863</text><text x="159.318" y="1.67" class="f">KB/s</text><text x="164.328" y="1.67" class="f">933.02/998.98</text><text x="178.356" y="1.67" class="f">KB</text></symbol><symbol id="7"><text y="1.67" class="f">[https://raw.githubusercontent.com/apnex/myvmw2/master/index/allGroups.json]</text><text x="77.154" y="1.67" class="f">downloading...</text><text x="92.184" y="1.67" class="f">[=================================================&gt;]</text><text x="145.29" y="1.67" class="f">100%</text><text x="150.3" y="1.67" class="f">0.0s</text><text x="155.31" y="1.67" class="f">1829</text><text x="160.32" y="1.67" class="f">KB/s</text><text x="165.33" y="1.67" class="f">998.98/998.98</text><text x="179.358" y="1.67" class="f">KB</text></symbol><symbol id="8"><text y="1.67" class="f">solution</text><text x="36.072" y="1.67" class="f">productGroup</text><text x="50.1" y="1.67" class="f">productType</text><text x="68.136" y="1.67" class="f">version</text><text x="77.154" y="1.67" class="f">fileName</text><text x="146.292" y="1.67" class="f">fileDate</text><text x="158.316" y="1.67" class="f">fileSize</text><text x="168.336" y="1.67" class="f">fileType</text></symbol><symbol id="9"><text y="1.67" class="f">----------------------------------</text><text x="36.072" y="1.67" class="f">------------</text><text x="50.1" y="1.67" class="f">----------------</text><text x="68.136" y="1.67" class="f">-------</text><text x="77.154" y="1.67" class="f">-------------------------------------------------------------------</text><text x="146.292" y="1.67" class="f">----------</text><text x="158.316" y="1.67" class="f">--------</text><text x="168.336" y="1.67" class="f">--------</text></symbol><symbol id="10"><text y="1.67" class="f">vmware-nsx-data-center-for-vsphere</text><text x="36.072" y="1.67" class="f">VRNI-380</text><text x="50.1" y="1.67" class="f">Product</text><text x="58.116" y="1.67" class="f">Binaries</text><text x="68.136" y="1.67" class="f">3.8.0</text><text x="77.154" y="1.67" class="f">VMware-vRealize-Network-Insight-3.8.0.1528874037-platform.ova</text><text x="146.292" y="1.67" class="f">2018-06-19</text><text x="158.316" y="1.67" class="f">3.86</text><text x="163.326" y="1.67" class="f">GB</text><text x="168.336" y="1.67" class="f">ova</text></symbol><symbol id="11"><text y="1.67" class="f">vmware-nsx-data-center-for-vsphere</text><text x="36.072" y="1.67" class="f">VRNI-380</text><text x="50.1" y="1.67" class="f">Product</text><text x="58.116" y="1.67" class="f">Binaries</text><text x="68.136" y="1.67" class="f">3.8.0</text><text x="77.154" y="1.67" class="f">VMware-vRealize-Network-Insight-3.8.0.1528874037-proxy.ova</text><text x="146.292" y="1.67" class="f">2018-06-19</text><text x="158.316" y="1.67" class="f">4.11</text><text x="163.326" y="1.67" class="f">GB</text><text x="168.336" y="1.67" class="f">ova</text></symbol><symbol id="12"><text y="1.67" class="f">vmware-nsx-data-center-for-vsphere</text><text x="36.072" y="1.67" class="f">VRNI-380</text><text x="50.1" y="1.67" class="f">Product</text><text x="58.116" y="1.67" class="f">Binaries</text><text x="68.136" y="1.67" class="f">3.8.0</text><text x="77.154" y="1.67" class="f">VMware-vRealize-Network-Insight.3.8.0.1528874037.upgrade.bundle</text><text x="146.292" y="1.67" class="f">2018-06-19</text><text x="158.316" y="1.67" class="f">3.97</text><text x="163.326" y="1.67" class="f">GB</text><text x="168.336" y="1.67" class="f">bundle</text></symbol><symbol id="13"><text y="1.67" class="f">vmware-nsx-data-center-for-vsphere</text><text x="36.072" y="1.67" class="f">VRNI-380-OSS</text><text x="50.1" y="1.67" class="f">Open</text><text x="55.11" y="1.67" class="f">Source</text><text x="68.136" y="1.67" class="f">3.8.0</text><text x="77.154" y="1.67" class="f">VMware-vRealize-Network-Insight-3.8.0-ODP.tar.gz</text><text x="146.292" y="1.67" class="f">2018-06-19</text><text x="158.316" y="1.67" class="f">2.04</text><text x="163.326" y="1.67" class="f">GB</text><text x="168.336" y="1.67" class="f">gz</text></symbol><symbol id="14"><text y="1.67" class="f">vmware-nsx-data-center-for-vsphere</text><text x="36.072" y="1.67" class="f">VRNI-370-OSS</text><text x="50.1" y="1.67" class="f">Open</text><text x="55.11" y="1.67" class="f">Source</text><text x="68.136" y="1.67" class="f">3.7.0</text><text x="77.154" y="1.67" class="f">VMware-vRealize-Network-Insight-3.7.0-ODP.tar.gz</text><text x="146.292" y="1.67" class="f">2018-02-22</text><text x="158.316" y="1.67" class="f">2.07</text><text x="163.326" y="1.67" class="f">GB</text><text x="168.336" y="1.67" class="f">gz</text></symbol><symbol id="15"><text y="1.67" class="f">vmware-nsx-data-center-for-vsphere</text><text x="36.072" y="1.67" class="f">VRNI-350-OSS</text><text x="50.1" y="1.67" class="f">Open</text><text x="55.11" y="1.67" class="f">Source</text><text x="68.136" y="1.67" class="f">3.5.0</text><text x="77.154" y="1.67" class="f">VMware-vRealize-Network-Insight-open-source-3.5.0-1502978926.tar.gz</text><text x="146.292" y="1.67" class="f">2017-09-05</text><text x="158.316" y="1.67" class="f">2.05</text><text x="163.326" y="1.67" class="f">GB</text><text x="168.336" y="1.67" class="f">gz</text></symbol><symbol id="16"><text y="1.67" class="f">vmware-nsx-data-center-for-vsphere</text><text x="36.072" y="1.67" class="f">VRNI-360-OSS</text><text x="50.1" y="1.67" class="f">Open</text><text x="55.11" y="1.67" class="f">Source</text><text x="68.136" y="1.67" class="f">3.6.0</text><text x="77.154" y="1.67" class="f">VMware-vRealize-Network-Insight-Open-Source-License-3.6.0-GA.txt</text><text x="146.292" y="1.67" class="f">2017-11-14</text><text x="158.316" y="1.67" class="f">6.41</text><text x="163.326" y="1.67" class="f">MB</text><text x="168.336" y="1.67" class="f">txt</text></symbol><symbol id="17"><text y="1.67" class="f">vmware-nsx-data-center-for-vsphere</text><text x="36.072" y="1.67" class="f">VRNI-360-OSS</text><text x="50.1" y="1.67" class="f">Open</text><text x="55.11" y="1.67" class="f">Source</text><text x="68.136" y="1.67" class="f">3.6.0</text><text x="77.154" y="1.67" class="f">VMware-vRealize-Network-Insight-Open-Source-3.6.0-1509991432.tar.gz</text><text x="146.292" y="1.67" class="f">2017-11-14</text><text x="158.316" y="1.67" class="f">2.04</text><text x="163.326" y="1.67" class="f">GB</text><text x="168.336" y="1.67" class="f">gz</text></symbol><symbol id="18"><text y="1.67" class="f">vmware-nsx-data-center-for-vsphere</text><text x="36.072" y="1.67" class="f">VRNI-330-OSS</text><text x="50.1" y="1.67" class="f">Open</text><text x="55.11" y="1.67" class="f">Source</text><text x="68.136" y="1.67" class="f">3.3.0</text><text x="77.154" y="1.67" class="f">open_source_license_vRealize-Network-Insight-3.3.0-GA.txt</text><text x="146.292" y="1.67" class="f">2017-03-02</text><text x="158.316" y="1.67" class="f">6.60</text><text x="163.326" y="1.67" class="f">MB</text><text x="168.336" y="1.67" class="f">txt</text></symbol><symbol id="19"><text y="1.67" class="f">vmware-nsx-data-center-for-vsphere</text><text x="36.072" y="1.67" class="f">VRNI-330-OSS</text><text x="50.1" y="1.67" class="f">Open</text><text x="55.11" y="1.67" class="f">Source</text><text x="68.136" y="1.67" class="f">3.3.0</text><text x="77.154" y="1.67" class="f">VMware-vRealize-Network-Insight-3.3.0-1487914671.tar.gz</text><text x="146.292" y="1.67" class="f">2017-03-02</text><text x="158.316" y="1.67" class="f">1.96</text><text x="163.326" y="1.67" class="f">GB</text><text x="168.336" y="1.67" class="f">gz</text></symbol><symbol id="20"><text y="1.67" class="f">[</text><text x="2.004" y="1.67" class="f">10/5435</text><text x="10.02" y="1.67" class="f">]</text><text x="12.024" y="1.67" class="f">entries</text><text x="20.04" y="1.67" class="f">-</text><text x="22.044" y="1.67" class="f">filter</text><text x="29.058" y="1.67" class="f">[</text><text x="31.062" y="1.67" class="f">fileName:network-insight</text><text x="56.112" y="1.67" class="f">]</text></symbol><symbol id="21"><text y="1.67" class="f">Terminal</text><text x="9.018" y="1.67" class="f">size:</text><text x="15.03" y="1.67" class="f">211x52</text></symbol><symbol id="a"><path fill="transparent" d="M0 0h182v21H0z"/></symbol><symbol id="b"><path fill="#6f7683" d="M0 0h1.102v2.171H0z"/></symbol></defs><path class="a" d="M0 0h182v43.42H0z"/><g style="animation-duration:12.69184s;animation-iteration-count:infinite;animation-name:i;animation-timing-function:steps(1,end)"><svg width="9464"><svg><use xlink:href="#a"/><use xlink:href="#b" x="-.004"/></svg><svg x="182"><use xlink:href="#a"/><use xlink:href="#b" x="14.996"/><use xlink:href="#1"/></svg><svg x="364"><use xlink:href="#a"/><use xlink:href="#b" x="15.996"/><text y="1.67" class="f">[root@obpc</text><text x="11.022" y="1.67" class="f">~]#</text><text x="15.03" y="1.67" class="f">v</text></svg><svg x="546"><use xlink:href="#a"/><use xlink:href="#b" x="16.996"/><text y="1.67" class="f">[root@obpc</text><text x="11.022" y="1.67" class="f">~]#</text><text x="15.03" y="1.67" class="f">vm</text></svg><svg x="728"><use xlink:href="#a"/><use xlink:href="#b" x="17.996"/><text y="1.67" class="f">[root@obpc</text><text x="11.022" y="1.67" class="f">~]#</text><text x="15.03" y="1.67" class="f">vmw</text></svg><svg x="910"><use xlink:href="#a"/><use xlink:href="#b" x="18.996"/><text y="1.67" class="f">[root@obpc</text><text x="11.022" y="1.67" class="f">~]#</text><text x="15.03" y="1.67" class="f">vmw-</text></svg><svg x="1092"><use xlink:href="#a"/><use xlink:href="#b" x="19.996"/><text y="1.67" class="f">[root@obpc</text><text x="11.022" y="1.67" class="f">~]#</text><text x="15.03" y="1.67" class="f">vmw-c</text></svg><svg x="1274"><use xlink:href="#a"/><use xlink:href="#b" x="20.996"/><text y="1.67" class="f">[root@obpc</text><text x="11.022" y="1.67" class="f">~]#</text><text x="15.03" y="1.67" class="f">vmw-cl</text></svg><svg x="1456"><use xlink:href="#a"/><use xlink:href="#b" x="21.996"/><use xlink:href="#2"/></svg><svg x="1638"><use xlink:href="#a"/><use xlink:href="#b" x="22.996"/><use xlink:href="#2"/></svg><svg x="1820"><use xlink:href="#a"/><use xlink:href="#b" x="23.996"/><text y="1.67" class="f">[root@obpc</text><text x="11.022" y="1.67" class="f">~]#</text><text x="15.03" y="1.67" class="f">vmw-cli</text><text x="23.046" y="1.67" class="f">f</text></svg><svg x="2002"><use xlink:href="#a"/><use xlink:href="#b" x="24.996"/><text y="1.67" class="f">[root@obpc</text><text x="11.022" y="1.67" class="f">~]#</text><text x="15.03" y="1.67" class="f">vmw-cli</text><text x="23.046" y="1.67" class="f">fi</text></svg><svg x="2184"><use xlink:href="#a"/><use xlink:href="#b" x="25.996"/><text y="1.67" class="f">[root@obpc</text><text x="11.022" y="1.67" class="f">~]#</text><text x="15.03" y="1.67" class="f">vmw-cli</text><text x="23.046" y="1.67" class="f">fin</text></svg><svg x="2366"><use xlink:href="#a"/><use xlink:href="#b" x="26.996"/><use xlink:href="#3"/></svg><svg x="2548"><use xlink:href="#a"/><use xlink:href="#b" x="27.996"/><use xlink:href="#3"/></svg><svg x="2730"><use xlink:href="#a"/><use xlink:href="#b" x="28.996"/><text y="1.67" class="f">[root@obpc</text><text x="11.022" y="1.67" class="f">~]#</text><text x="15.03" y="1.67" class="f">vmw-cli</text><text x="23.046" y="1.67" class="f">find</text><text x="28.056" y="1.67" class="f">n</text></svg><svg x="2912"><use xlink:href="#a"/><use xlink:href="#b" x="29.996"/><text y="1.67" class="f">[root@obpc</text><text x="11.022" y="1.67" class="f">~]#</text><text x="15.03" y="1.67" class="f">vmw-cli</text><text x="23.046" y="1.67" class="f">find</text><text x="28.056" y="1.67" class="f">ne</text></svg><svg x="3094"><use xlink:href="#a"/><use xlink:href="#b" x="30.996"/><text y="1.67" class="f">[root@obpc</text><text x="11.022" y="1.67" class="f">~]#</text><text x="15.03" y="1.67" class="f">vmw-cli</text><text x="23.046" y="1.67" class="f">find</text><text x="28.056" y="1.67" class="f">net</text></svg><svg x="3276"><use xlink:href="#a"/><use xlink:href="#b" x="31.996"/><text y="1.67" class="f">[root@obpc</text><text x="11.022" y="1.67" class="f">~]#</text><text x="15.03" y="1.67" class="f">vmw-cli</text><text x="23.046" y="1.67" class="f">find</text><text x="28.056" y="1.67" class="f">netw</text></svg><svg x="3458"><use xlink:href="#a"/><use xlink:href="#b" x="32.996"/><text y="1.67" class="f">[root@obpc</text><text x="11.022" y="1.67" class="f">~]#</text><text x="15.03" y="1.67" class="f">vmw-cli</text><text x="23.046" y="1.67" class="f">find</text><text x="28.056" y="1.67" class="f">netwo</text></svg><svg x="3640"><use xlink:href="#a"/><use xlink:href="#b" x="33.996"/><text y="1.67" class="f">[root@obpc</text><text x="11.022" y="1.67" class="f">~]#</text><text x="15.03" y="1.67" class="f">vmw-cli</text><text x="23.046" y="1.67" class="f">find</text><text x="28.056" y="1.67" class="f">networ</text></svg><svg x="3822"><use xlink:href="#a"/><use xlink:href="#b" x="34.996"/><text y="1.67" class="f">[root@obpc</text><text x="11.022" y="1.67" class="f">~]#</text><text x="15.03" y="1.67" class="f">vmw-cli</text><text x="23.046" y="1.67" class="f">find</text><text x="28.056" y="1.67" class="f">network</text></svg><svg x="4004"><use xlink:href="#a"/><use xlink:href="#b" x="35.996"/><text y="1.67" class="f">[root@obpc</text><text x="11.022" y="1.67" class="f">~]#</text><text x="15.03" y="1.67" class="f">vmw-cli</text><text x="23.046" y="1.67" class="f">find</text><text x="28.056" y="1.67" class="f">network-</text></svg><svg x="4186"><use xlink:href="#a"/><use xlink:href="#b" x="36.996"/><text y="1.67" class="f">[root@obpc</text><text x="11.022" y="1.67" class="f">~]#</text><text x="15.03" y="1.67" class="f">vmw-cli</text><text x="23.046" y="1.67" class="f">find</text><text x="28.056" y="1.67" class="f">network-i</text></svg><svg x="4368"><use xlink:href="#a"/><use xlink:href="#b" x="37.996"/><text y="1.67" class="f">[root@obpc</text><text x="11.022" y="1.67" class="f">~]#</text><text x="15.03" y="1.67" class="f">vmw-cli</text><text x="23.046" y="1.67" class="f">find</text><text x="28.056" y="1.67" class="f">network-in</text></svg><svg x="4550"><use xlink:href="#a"/><use xlink:href="#b" x="38.996"/><text y="1.67" class="f">[root@obpc</text><text x="11.022" y="1.67" class="f">~]#</text><text x="15.03" y="1.67" class="f">vmw-cli</text><text x="23.046" y="1.67" class="f">find</text><text x="28.056" y="1.67" class="f">network-ins</text></svg><svg x="4732"><use xlink:href="#a"/><use xlink:href="#b" x="39.996"/><text y="1.67" class="f">[root@obpc</text><text x="11.022" y="1.67" class="f">~]#</text><text x="15.03" y="1.67" class="f">vmw-cli</text><text x="23.046" y="1.67" class="f">find</text><text x="28.056" y="1.67" class="f">network-insi</text></svg><svg x="4914"><use xlink:href="#a"/><use xlink:href="#b" x="40.996"/><text y="1.67" class="f">[root@obpc</text><text x="11.022" y="1.67" class="f">~]#</text><text x="15.03" y="1.67" class="f">vmw-cli</text><text x="23.046" y="1.67" class="f">find</text><text x="28.056" y="1.67" class="f">network-insig</text></svg><svg x="5096"><use xlink:href="#a"/><use xlink:href="#b" x="41.996"/><text y="1.67" class="f">[root@obpc</text><text x="11.022" y="1.67" class="f">~]#</text><text x="15.03" y="1.67" class="f">vmw-cli</text><text x="23.046" y="1.67" class="f">find</text><text x="28.056" y="1.67" class="f">network-insigh</text></svg><svg x="5278"><use xlink:href="#a"/><use xlink:href="#b" x="42.996"/><use xlink:href="#4"/></svg><svg x="5460"><use xlink:href="#a"/><use xlink:href="#b" x="-.004" y="2.146"/><use xlink:href="#4"/></svg><svg x="5642"><use xlink:href="#a"/><use xlink:href="#b" x="-.004" y="4.317"/><use xlink:href="#4"/><use xlink:href="#5" y="2.171"/></svg><svg x="5824"><use xlink:href="#a"/><use xlink:href="#b" x="179.996" y="4.317"/><use xlink:href="#4"/><use xlink:href="#5" y="2.171"/><use xlink:href="#6" y="4.342"/></svg><svg x="6006"><use xlink:href="#a"/><use xlink:href="#b" x="179.996" y="4.317"/><use xlink:href="#4"/><use xlink:href="#5" y="2.171"/><use xlink:href="#6" y="4.342"/></svg><svg x="6188"><use xlink:href="#a"/><use xlink:href="#b" x="180.996" y="4.317"/><use xlink:href="#4"/><use xlink:href="#5" y="2.171"/><use xlink:href="#7" y="4.342"/></svg><svg x="6370"><use xlink:href="#a"/><use xlink:href="#b" x="-.004" y="6.488"/><use xlink:href="#4"/><use xlink:href="#5" y="2.171"/><use xlink:href="#7" y="4.342"/></svg><svg x="6552"><use xlink:href="#a"/><use xlink:href="#b" x="-.004" y="10.83"/><use xlink:href="#4"/><use xlink:href="#5" y="2.171"/><use xlink:href="#7" y="4.342"/><use xlink:href="#8" y="6.513"/><use xlink:href="#9" y="8.684"/></svg><svg x="6734"><use xlink:href="#a"/><use xlink:href="#b" x="-.004" y="13.001"/><use xlink:href="#4"/><use xlink:href="#5" y="2.171"/><use xlink:href="#7" y="4.342"/><use xlink:href="#8" y="6.513"/><use xlink:href="#9" y="8.684"/><use xlink:href="#10" y="10.855"/></svg><svg x="6916"><use xlink:href="#a"/><use xlink:href="#b" x="-.004" y="15.172"/><use xlink:href="#4"/><use xlink:href="#5" y="2.171"/><use xlink:href="#7" y="4.342"/><use xlink:href="#8" y="6.513"/><use xlink:href="#9" y="8.684"/><use xlink:href="#10" y="10.855"/><use xlink:href="#11" y="13.026"/></svg><svg x="7098"><use xlink:href="#a"/><use xlink:href="#b" x="-.004" y="17.343"/><use xlink:href="#4"/><use xlink:href="#5" y="2.171"/><use xlink:href="#7" y="4.342"/><use xlink:href="#8" y="6.513"/><use xlink:href="#9" y="8.684"/><use xlink:href="#10" y="10.855"/><use xlink:href="#11" y="13.026"/><use xlink:href="#12" y="15.197"/></svg><svg x="7280"><use xlink:href="#a"/><use xlink:href="#b" x="-.004" y="19.514"/><use xlink:href="#4"/><use xlink:href="#5" y="2.171"/><use xlink:href="#7" y="4.342"/><use xlink:href="#8" y="6.513"/><use xlink:href="#9" y="8.684"/><use xlink:href="#10" y="10.855"/><use xlink:href="#11" y="13.026"/><use xlink:href="#12" y="15.197"/><use xlink:href="#13" y="17.368"/></svg><svg x="7462"><use xlink:href="#a"/><use xlink:href="#b" x="-.004" y="21.685"/><use xlink:href="#4"/><use xlink:href="#5" y="2.171"/><use xlink:href="#7" y="4.342"/><use xlink:href="#8" y="6.513"/><use xlink:href="#9" y="8.684"/><use xlink:href="#10" y="10.855"/><use xlink:href="#11" y="13.026"/><use xlink:href="#12" y="15.197"/><use xlink:href="#13" y="17.368"/><use xlink:href="#14" y="19.539"/></svg><svg x="7644"><use xlink:href="#a"/><use xlink:href="#b" x="-.004" y="23.856"/><use xlink:href="#4"/><use xlink:href="#5" y="2.171"/><use xlink:href="#7" y="4.342"/><use xlink:href="#8" y="6.513"/><use xlink:href="#9" y="8.684"/><use xlink:href="#10" y="10.855"/><use xlink:href="#11" y="13.026"/><use xlink:href="#12" y="15.197"/><use xlink:href="#13" y="17.368"/><use xlink:href="#14" y="19.539"/><use xlink:href="#15" y="21.71"/></svg><svg x="7826"><use xlink:href="#a"/><use xlink:href="#b" x="-.004" y="26.027"/><use xlink:href="#4"/><use xlink:href="#5" y="2.171"/><use xlink:href="#7" y="4.342"/><use xlink:href="#8" y="6.513"/><use xlink:href="#9" y="8.684"/><use xlink:href="#10" y="10.855"/><use xlink:href="#11" y="13.026"/><use xlink:href="#12" y="15.197"/><use xlink:href="#13" y="17.368"/><use xlink:href="#14" y="19.539"/><use xlink:href="#15" y="21.71"/><use xlink:href="#16" y="23.881"/></svg><svg x="8008"><use xlink:href="#a"/><use xlink:href="#b" x="-.004" y="28.198"/><use xlink:href="#4"/><use xlink:href="#5" y="2.171"/><use xlink:href="#7" y="4.342"/><use xlink:href="#8" y="6.513"/><use xlink:href="#9" y="8.684"/><use xlink:href="#10" y="10.855"/><use xlink:href="#11" y="13.026"/><use xlink:href="#12" y="15.197"/><use xlink:href="#13" y="17.368"/><use xlink:href="#14" y="19.539"/><use xlink:href="#15" y="21.71"/><use xlink:href="#16" y="23.881"/><use xlink:href="#17" y="26.052"/></svg><svg x="8190"><use xlink:href="#a"/><use xlink:href="#b" x="-.004" y="30.369"/><use xlink:href="#4"/><use xlink:href="#5" y="2.171"/><use xlink:href="#7" y="4.342"/><use xlink:href="#8" y="6.513"/><use xlink:href="#9" y="8.684"/><use xlink:href="#10" y="10.855"/><use xlink:href="#11" y="13.026"/><use xlink:href="#12" y="15.197"/><use xlink:href="#13" y="17.368"/><use xlink:href="#14" y="19.539"/><use xlink:href="#15" y="21.71"/><use xlink:href="#16" y="23.881"/><use xlink:href="#17" y="26.052"/><use xlink:href="#18" y="28.223"/></svg><svg x="8372"><use xlink:href="#a"/><use xlink:href="#b" x="-.004" y="32.54"/><use xlink:href="#4"/><use xlink:href="#5" y="2.171"/><use xlink:href="#7" y="4.342"/><use xlink:href="#8" y="6.513"/><use xlink:href="#9" y="8.684"/><use xlink:href="#10" y="10.855"/><use xlink:href="#11" y="13.026"/><use xlink:href="#12" y="15.197"/><use xlink:href="#13" y="17.368"/><use xlink:href="#14" y="19.539"/><use xlink:href="#15" y="21.71"/><use xlink:href="#16" y="23.881"/><use xlink:href="#17" y="26.052"/><use xlink:href="#18" y="28.223"/><use xlink:href="#19" y="30.394"/></svg><svg x="8554"><use xlink:href="#a"/><use xlink:href="#b" x="-.004" y="34.711"/><use xlink:href="#4"/><use xlink:href="#5" y="2.171"/><use xlink:href="#7" y="4.342"/><use xlink:href="#8" y="6.513"/><use xlink:href="#9" y="8.684"/><use xlink:href="#10" y="10.855"/><use xlink:href="#11" y="13.026"/><use xlink:href="#12" y="15.197"/><use xlink:href="#13" y="17.368"/><use xlink:href="#14" y="19.539"/><use xlink:href="#15" y="21.71"/><use xlink:href="#16" y="23.881"/><use xlink:href="#17" y="26.052"/><use xlink:href="#18" y="28.223"/><use xlink:href="#19" y="30.394"/><use xlink:href="#20" y="32.565"/></svg><svg x="8736"><use xlink:href="#a"/><use xlink:href="#b" x="-.004" y="36.882"/><use xlink:href="#4"/><use xlink:href="#5" y="2.171"/><use xlink:href="#7" y="4.342"/><use xlink:href="#8" y="6.513"/><use xlink:href="#9" y="8.684"/><use xlink:href="#10" y="10.855"/><use xlink:href="#11" y="13.026"/><use xlink:href="#12" y="15.197"/><use xlink:href="#13" y="17.368"/><use xlink:href="#14" y="19.539"/><use xlink:href="#15" y="21.71"/><use xlink:href="#16" y="23.881"/><use xlink:href="#17" y="26.052"/><use xlink:href="#18" y="28.223"/><use xlink:href="#19" y="30.394"/><use xlink:href="#20" y="32.565"/><use xlink:href="#21" y="34.736"/></svg><svg x="8918"><use xlink:href="#a"/><use xlink:href="#b" x="-.004" y="36.882"/><use xlink:href="#4"/><use xlink:href="#5" y="2.171"/><use xlink:href="#7" y="4.342"/><use xlink:href="#8" y="6.513"/><use xlink:href="#9" y="8.684"/><use xlink:href="#10" y="10.855"/><use xlink:href="#11" y="13.026"/><use xlink:href="#12" y="15.197"/><use xlink:href="#13" y="17.368"/><use xlink:href="#14" y="19.539"/><use xlink:href="#15" y="21.71"/><use xlink:href="#16" y="23.881"/><use xlink:href="#17" y="26.052"/><use xlink:href="#18" y="28.223"/><use xlink:href="#19" y="30.394"/><use xlink:href="#20" y="32.565"/><use xlink:href="#21" y="34.736"/></svg><svg x="9100"><use xlink:href="#a"/><use xlink:href="#b" x="-.004" y="39.053"/><use xlink:href="#4"/><use xlink:href="#5" y="2.171"/><use xlink:href="#7" y="4.342"/><use xlink:href="#8" y="6.513"/><use xlink:href="#9" y="8.684"/><use xlink:href="#10" y="10.855"/><use xlink:href="#11" y="13.026"/><use xlink:href="#12" y="15.197"/><use xlink:href="#13" y="17.368"/><use xlink:href="#14" y="19.539"/><use xlink:href="#15" y="21.71"/><use xlink:href="#16" y="23.881"/><use xlink:href="#17" y="26.052"/><use xlink:href="#18" y="28.223"/><use xlink:href="#19" y="30.394"/><use xlink:href="#20" y="32.565"/><use xlink:href="#21" y="34.736"/><use xlink:href="#1" y="36.907"/></svg><svg x="9282"><use xlink:href="#a"/><use xlink:href="#b" x="-.004" y="39.053"/><use xlink:href="#4"/><use xlink:href="#5" y="2.171"/><use xlink:href="#7" y="4.342"/><use xlink:href="#8" y="6.513"/><use xlink:href="#9" y="8.684"/><use xlink:href="#10" y="10.855"/><use xlink:href="#11" y="13.026"/><use xlink:href="#12" y="15.197"/><use xlink:href="#13" y="17.368"/><use xlink:href="#14" y="19.539"/><use xlink:href="#15" y="21.71"/><use xlink:href="#16" y="23.881"/><use xlink:href="#17" y="26.052"/><use xlink:href="#18" y="28.223"/><use xlink:href="#19" y="30.394"/><use xlink:href="#20" y="32.565"/><use xlink:href="#21" y="34.736"/><use xlink:href="#1" y="36.907"/></svg></svg></g></g></svg></svg>