<?xml version="1.0"?>
<svg xmlns="http://www.w3.org/2000/svg" xmlns:xlink="http://www.w3.org/1999/xlink" width="1540" height="233.68">
  <rect width="1540" height="233.68" rx="5" ry="5" class="a"/>
  <svg y="0%" x="0%">
    <circle cx="20" cy="20" r="6" fill="#ff5f58"/>
    <circle cx="40" cy="20" r="6" fill="#ffbd2e"/>
    <circle cx="60" cy="20" r="6" fill="#18c132"/>
  </svg>
  <svg xmlns="http://www.w3.org/2000/svg" xmlns:xlink="http://www.w3.org/1999/xlink" height="173.68" viewBox="0 0 150 17.368" width="1500" x="15" y="50">
    <style>@keyframes p{0%{transform:translateX(-150px)}7%{transform:translateX(-300px)}8.7%{transform:translateX(-450px)}9.4%{transform:translateX(-600px)}11.3%{transform:translateX(-750px)}12.7%{transform:translateX(-900px)}13.1%{transform:translateX(-1050px)}13.6%{transform:translateX(-1200px)}14.2%{transform:translateX(-1350px)}15.8%{transform:translateX(-1500px)}16.8%{transform:translateX(-1650px)}17.9%{transform:translateX(-1800px)}19.3%{transform:translateX(-1950px)}21.4%{transform:translateX(-2100px)}22.5%{transform:translateX(-2250px)}24%{transform:translateX(-2400px)}25.4%{transform:translateX(-2550px)}28.7%{transform:translateX(-2700px)}29.8%{transform:translateX(-2850px)}30.5%{transform:translateX(-3000px)}35.3%{transform:translateX(-3150px)}37.1%{transform:translateX(-3300px)}38.2%{transform:translateX(-3450px)}39.4%{transform:translateX(-3600px)}40%{transform:translateX(-3750px)}41.2%{transform:translateX(-3900px)}42.5%{transform:translateX(-4050px)}43.7%{transform:translateX(-4200px)}45%{transform:translateX(-4350px)}45.9%{transform:translateX(-4500px)}49.2%{transform:translateX(-4800px)}50.1%{transform:translateX(-4950px)}50.5%{transform:translateX(-5100px)}51%{transform:translateX(-5250px)}51.4%{transform:translateX(-5400px)}51.8%{transform:translateX(-5550px)}52.2%{transform:translateX(-5700px)}52.7%{transform:translateX(-5850px)}52.9%{transform:translateX(-6900px)}53.2%{transform:translateX(-7200px)}53.6%{transform:translateX(-7350px)}54.4%{transform:translateX(-7500px)}54.8%{transform:translateX(-7650px)}55.3%{transform:translateX(-7800px)}55.7%{transform:translateX(-7950px)}56.1%{transform:translateX(-8100px)}56.5%{transform:translateX(-8250px)}56.9%{transform:translateX(-8400px)}57.3%{transform:translateX(-8550px)}57.8%{transform:translateX(-8700px)}58.2%{transform:translateX(-8850px)}58.6%{transform:translateX(-9450px)}58.8%{transform:translateX(-9750px)}59.6%{transform:translateX(-9900px)}to{transform:translateX(-10050px)}}.a{fill:#282d35}.f{fill:#00ff00}.g{fill:#6f7783}.h{fill:#71bef2}.i{fill:#d290e4}.j{fill:#b9bfca}.k{fill:#dbab79}.m{fill:#a8cc8c}</style>
    <g font-size="1.67" font-family="Monaco,Consolas,Menlo,'Bitstream Vera Sans Mono','Powerline Symbols',monospace">
      <defs>
        <symbol id="1">
          <text y="1.67" class="f">[root@obpc</text>
          <text x="11.022" y="1.67" class="f">~]#</text>
        </symbol>
        <symbol id="2">
          <text y="1.67" class="f">[root@obpc</text>
          <text x="11.022" y="1.67" class="f">~]#</text>
          <text x="15.03" y="1.67" class="f">npm</text>
        </symbol>
        <symbol id="3">
          <text y="1.67" class="f">[root@obpc</text>
          <text x="11.022" y="1.67" class="f">~]#</text>
          <text x="15.03" y="1.67" class="f">npm</text>
          <text x="19.038" y="1.67" class="f">install</text>
        </symbol>
        <symbol id="4">
          <text y="1.67" class="f">[root@obpc</text>
          <text x="11.022" y="1.67" class="f">~]#</text>
          <text x="15.03" y="1.67" class="f">npm</text>
          <text x="19.038" y="1.67" class="f">install</text>
          <text x="27.054" y="1.67" class="f">vmw-cli</text>
        </symbol>
        <symbol id="5">
          <text y="1.67" class="f">[root@obpc</text>
          <text x="11.022" y="1.67" class="f">~]#</text>
          <text x="15.03" y="1.67" class="f">npm</text>
          <text x="19.038" y="1.67" class="f">install</text>
          <text x="27.054" y="1.67" class="f">vmw-cli</text>
          <text x="35.07" y="1.67" class="f">--global</text>
        </symbol>
        <symbol id="6"><text y="1.67" class="f">[</text><text x="1.002" y="1.67" class="g">..................</text><text x="19.038" y="1.67" class="f">]</text><text x="21.042" y="1.67" class="f">/</text><text x="23.046" y="1.67" class="f">rollbackFailedOptional:</text>0<text x="47.094" y="1.67" class="h">verb</text><text x="52.104" y="1.67" class="i">npm-session</text><text x="64.128" y="1.67" class="f">d5ec2a3fb5d5358b</text></symbol>
        <symbol id="7">0<text y="1.67" class="j">npm</text></symbol>
        <symbol id="8">0<text y="1.67" class="j">npm</text><path class="k" d="M4.008 0h4v2.171h-4z"/><text x="4.008" y="1.67" class="l">WARN</text></symbol>
        <symbol id="9">0<text y="1.67" class="j">npm</text><path class="k" d="M4.008 0h4v2.171h-4z"/><text x="4.008" y="1.67" class="l">WARN</text><text x="9.018" y="1.67" class="i">deprecated</text><text x="20.04" y="1.67" class="f">tough-cookie@0.12.1:</text><text x="41.082" y="1.67" class="f">ReDoS</text><text x="47.094" y="1.67" class="f">vulnerability</text><text x="61.122" y="1.67" class="f">parsing</text><text x="69.138" y="1.67" class="f">Set-Cookie</text><text x="80.16" y="1.67" class="f">https://nodesecurity.io/advisories/130</text></symbol>
        <symbol id="10"><text y="1.67" class="f">[</text><path class="f" d="M1.002 0h7v2.171h-7z"/><text x="1.002" y="1.67" class="a"/><text x="8.016" y="1.67" class="g">...........</text><text x="19.038" y="1.67" class="f">]</text><text x="21.042" y="1.67" class="f">/</text><text x="23.046" y="1.67" class="f">extract:vmw-cli:</text>0<text x="40.08" y="1.67" class="h">verb</text><text x="45.09" y="1.67" class="i">lock</text><text x="50.1" y="1.67" class="f">using</text><text x="56.112" y="1.67" class="f">/root/.npm/_locks/staging-a072192f34a17023.lock</text><text x="104.208" y="1.67" class="f">for</text><text x="108.216" y="1.67" class="f">/usr/lib/node_modules/.staging</text></symbol>
        <symbol id="11">
          <text y="1.67" class="f">[</text>
          <path class="f" d="M1.002 0h12v2.171h-12z"/>
          <text x="1.002" y="1.67" class="a"/>
          <text x="13.026" y="1.67" class="g">......</text>
          <text x="19.038" y="1.67" class="f">]</text>
          <text x="21.042" y="1.67" class="f">/</text>
          <text x="23.046" y="1.67" class="f">extract:ajv:</text>
          <path class="f" d="M36.072 0h4v2.171h-4z"/>
          <text x="36.072" y="1.67" class="a">sill</text>
          <text x="41.082" y="1.67" class="i">extract</text>
          <text x="49.098" y="1.67" class="f">ajv@^5.1.0</text>
          <text x="60.12" y="1.67" class="f">extracted</text>
          <text x="70.14" y="1.67" class="f">to</text>
          <text x="73.146" y="1.67" class="f">/usr/lib/node_modules/.staging/ajv-cde3d49f</text>
          <text x="117.234" y="1.67" class="f">(314ms)</text>
        </symbol>
        <symbol id="12"><text y="1.67" class="f">[</text><path class="f" d="M1.002 0h12v2.171h-12z"/><text x="1.002" y="1.67" class="a"/><text x="13.026" y="1.67" class="g">......</text><text x="19.038" y="1.67" class="f">]</text><text x="21.042" y="1.67" class="f">-</text><text x="23.046" y="1.67" class="f">refresh-package-json:vmw-cli:</text>0<text x="53.106" y="1.67" class="m">timing</text><text x="60.12" y="1.67" class="i">action:finalize</text><text x="76.152" y="1.67" class="f">Completed</text><text x="86.172" y="1.67" class="f">in</text><text x="89.178" y="1.67" class="f">48ms</text></symbol>
        <symbol id="13">
          <text y="1.67" class="f">/usr/bin/vmw-cli</text>
          <text x="17.034" y="1.67" class="f">-&gt;</text>
          <text x="20.04" y="1.67" class="f">/usr/lib/node_modules/vmw-cli/vmw-cli.js</text>
        </symbol>
        <symbol id="14">
          <text y="1.67" class="f">+</text>
          <text x="2.004" y="1.67" class="f">vmw-cli@1.0.6</text>
        </symbol>
        <symbol id="15">
          <text y="1.67" class="f">added</text>
          <text x="6.012" y="1.67" class="f">75</text>
          <text x="9.018" y="1.67" class="f">packages</text>
          <text x="18.036" y="1.67" class="f">from</text>
          <text x="23.046" y="1.67" class="f">72</text>
          <text x="26.052" y="1.67" class="f">contributors</text>
          <text x="39.078" y="1.67" class="f">in</text>
          <text x="42.084" y="1.67" class="f">1.203s</text>
        </symbol>
        <symbol id="a">
          <path fill="transparent" d="M0 0h150v9H0z"/>
        </symbol>
        <symbol id="b">
          <path fill="#6f7683" d="M0 0h1.102v2.171H0z"/>
        </symbol>
      </defs>
      <path class="a" d="M0 0h150v17.368H0z"/>
      <g style="animation-duration:12.372143000000001s;animation-iteration-count:infinite;animation-name:p;animation-timing-function:steps(1,end)">
        <svg width="10200">
          <svg>
            <use xlink:href="#a"/>
            <use xlink:href="#b" x="-.004"/>
          </svg>
          <svg x="150">
            <use xlink:href="#a"/>
            <use xlink:href="#b" x="14.996"/>
            <use xlink:href="#1"/>
          </svg>
          <svg x="300">
            <use xlink:href="#a"/>
            <use xlink:href="#b" x="15.996"/>
            <text y="1.67" class="f">[root@obpc</text>
            <text x="11.022" y="1.67" class="f">~]#</text>
            <text x="15.03" y="1.67" class="f">n</text>
          </svg>
          <svg x="450">
            <use xlink:href="#a"/>
            <use xlink:href="#b" x="16.996"/>
            <text y="1.67" class="f">[root@obpc</text>
            <text x="11.022" y="1.67" class="f">~]#</text>
            <text x="15.03" y="1.67" class="f">np</text>
          </svg>
          <svg x="600">
            <use xlink:href="#a"/>
            <use xlink:href="#b" x="17.996"/>
            <use xlink:href="#2"/>
          </svg>
          <svg x="750">
            <use xlink:href="#a"/>
            <use xlink:href="#b" x="18.996"/>
            <use xlink:href="#2"/>
          </svg>
          <svg x="900">
            <use xlink:href="#a"/>
            <use xlink:href="#b" x="19.996"/>
            <text y="1.67" class="f">[root@obpc</text>
            <text x="11.022" y="1.67" class="f">~]#</text>
            <text x="15.03" y="1.67" class="f">npm</text>
            <text x="19.038" y="1.67" class="f">i</text>
          </svg>
          <svg x="1050">
            <use xlink:href="#a"/>
            <use xlink:href="#b" x="20.996"/>
            <text y="1.67" class="f">[root@obpc</text>
            <text x="11.022" y="1.67" class="f">~]#</text>
            <text x="15.03" y="1.67" class="f">npm</text>
            <text x="19.038" y="1.67" class="f">in</text>
          </svg>
          <svg x="1200">
            <use xlink:href="#a"/>
            <use xlink:href="#b" x="21.996"/>
            <text y="1.67" class="f">[root@obpc</text>
            <text x="11.022" y="1.67" class="f">~]#</text>
            <text x="15.03" y="1.67" class="f">npm</text>
            <text x="19.038" y="1.67" class="f">ins</text>
          </svg>
          <svg x="1350">
            <use xlink:href="#a"/>
            <use xlink:href="#b" x="22.996"/>
            <text y="1.67" class="f">[root@obpc</text>
            <text x="11.022" y="1.67" class="f">~]#</text>
            <text x="15.03" y="1.67" class="f">npm</text>
            <text x="19.038" y="1.67" class="f">inst</text>
          </svg>
          <svg x="1500">
            <use xlink:href="#a"/>
            <use xlink:href="#b" x="23.996"/>
            <text y="1.67" class="f">[root@obpc</text>
            <text x="11.022" y="1.67" class="f">~]#</text>
            <text x="15.03" y="1.67" class="f">npm</text>
            <text x="19.038" y="1.67" class="f">insta</text>
          </svg>
          <svg x="1650">
            <use xlink:href="#a"/>
            <use xlink:href="#b" x="24.996"/>
            <text y="1.67" class="f">[root@obpc</text>
            <text x="11.022" y="1.67" class="f">~]#</text>
            <text x="15.03" y="1.67" class="f">npm</text>
            <text x="19.038" y="1.67" class="f">instal</text>
          </svg>
          <svg x="1800">
            <use xlink:href="#a"/>
            <use xlink:href="#b" x="25.996"/>
            <use xlink:href="#3"/>
          </svg>
          <svg x="1950">
            <use xlink:href="#a"/>
            <use xlink:href="#b" x="26.996"/>
            <use xlink:href="#3"/>
          </svg>
          <svg x="2100">
            <use xlink:href="#a"/>
            <use xlink:href="#b" x="27.996"/>
            <text y="1.67" class="f">[root@obpc</text>
            <text x="11.022" y="1.67" class="f">~]#</text>
            <text x="15.03" y="1.67" class="f">npm</text>
            <text x="19.038" y="1.67" class="f">install</text>
            <text x="27.054" y="1.67" class="f">v</text>
          </svg>
          <svg x="2250">
            <use xlink:href="#a"/>
            <use xlink:href="#b" x="28.996"/>
            <text y="1.67" class="f">[root@obpc</text>
            <text x="11.022" y="1.67" class="f">~]#</text>
            <text x="15.03" y="1.67" class="f">npm</text>
            <text x="19.038" y="1.67" class="f">install</text>
            <text x="27.054" y="1.67" class="f">vm</text>
          </svg>
          <svg x="2400">
            <use xlink:href="#a"/>
            <use xlink:href="#b" x="29.996"/>
            <text y="1.67" class="f">[root@obpc</text>
            <text x="11.022" y="1.67" class="f">~]#</text>
            <text x="15.03" y="1.67" class="f">npm</text>
            <text x="19.038" y="1.67" class="f">install</text>
            <text x="27.054" y="1.67" class="f">vmw</text>
          </svg>
          <svg x="2550">
            <use xlink:href="#a"/>
            <use xlink:href="#b" x="30.996"/>
            <text y="1.67" class="f">[root@obpc</text>
            <text x="11.022" y="1.67" class="f">~]#</text>
            <text x="15.03" y="1.67" class="f">npm</text>
            <text x="19.038" y="1.67" class="f">install</text>
            <text x="27.054" y="1.67" class="f">vmw-</text>
          </svg>
          <svg x="2700">
            <use xlink:href="#a"/>
            <use xlink:href="#b" x="31.996"/>
            <text y="1.67" class="f">[root@obpc</text>
            <text x="11.022" y="1.67" class="f">~]#</text>
            <text x="15.03" y="1.67" class="f">npm</text>
            <text x="19.038" y="1.67" class="f">install</text>
            <text x="27.054" y="1.67" class="f">vmw-c</text>
          </svg>
          <svg x="2850">
            <use xlink:href="#a"/>
            <use xlink:href="#b" x="32.996"/>
            <text y="1.67" class="f">[root@obpc</text>
            <text x="11.022" y="1.67" class="f">~]#</text>
            <text x="15.03" y="1.67" class="f">npm</text>
            <text x="19.038" y="1.67" class="f">install</text>
            <text x="27.054" y="1.67" class="f">vmw-cl</text>
          </svg>
          <svg x="3000">
            <use xlink:href="#a"/>
            <use xlink:href="#b" x="33.996"/>
            <use xlink:href="#4"/>
          </svg>
          <svg x="3150">
            <use xlink:href="#a"/>
            <use xlink:href="#b" x="34.996"/>
            <use xlink:href="#4"/>
          </svg>
          <svg x="3300">
            <use xlink:href="#a"/>
            <use xlink:href="#b" x="35.996"/>
            <text y="1.67" class="f">[root@obpc</text>
            <text x="11.022" y="1.67" class="f">~]#</text>
            <text x="15.03" y="1.67" class="f">npm</text>
            <text x="19.038" y="1.67" class="f">install</text>
            <text x="27.054" y="1.67" class="f">vmw-cli</text>
            <text x="35.07" y="1.67" class="f">-</text>
          </svg>
          <svg x="3450">
            <use xlink:href="#a"/>
            <use xlink:href="#b" x="36.996"/>
            <text y="1.67" class="f">[root@obpc</text>
            <text x="11.022" y="1.67" class="f">~]#</text>
            <text x="15.03" y="1.67" class="f">npm</text>
            <text x="19.038" y="1.67" class="f">install</text>
            <text x="27.054" y="1.67" class="f">vmw-cli</text>
            <text x="35.07" y="1.67" class="f">--</text>
          </svg>
          <svg x="3600">
            <use xlink:href="#a"/>
            <use xlink:href="#b" x="37.996"/>
            <text y="1.67" class="f">[root@obpc</text>
            <text x="11.022" y="1.67" class="f">~]#</text>
            <text x="15.03" y="1.67" class="f">npm</text>
            <text x="19.038" y="1.67" class="f">install</text>
            <text x="27.054" y="1.67" class="f">vmw-cli</text>
            <text x="35.07" y="1.67" class="f">--g</text>
          </svg>
          <svg x="3750">
            <use xlink:href="#a"/>
            <use xlink:href="#b" x="38.996"/>
            <text y="1.67" class="f">[root@obpc</text>
            <text x="11.022" y="1.67" class="f">~]#</text>
            <text x="15.03" y="1.67" class="f">npm</text>
            <text x="19.038" y="1.67" class="f">install</text>
            <text x="27.054" y="1.67" class="f">vmw-cli</text>
            <text x="35.07" y="1.67" class="f">--gl</text>
          </svg>
          <svg x="3900">
            <use xlink:href="#a"/>
            <use xlink:href="#b" x="39.996"/>
            <text y="1.67" class="f">[root@obpc</text>
            <text x="11.022" y="1.67" class="f">~]#</text>
            <text x="15.03" y="1.67" class="f">npm</text>
            <text x="19.038" y="1.67" class="f">install</text>
            <text x="27.054" y="1.67" class="f">vmw-cli</text>
            <text x="35.07" y="1.67" class="f">--glo</text>
          </svg>
          <svg x="4050">
            <use xlink:href="#a"/>
            <use xlink:href="#b" x="40.996"/>
            <text y="1.67" class="f">[root@obpc</text>
            <text x="11.022" y="1.67" class="f">~]#</text>
            <text x="15.03" y="1.67" class="f">npm</text>
            <text x="19.038" y="1.67" class="f">install</text>
            <text x="27.054" y="1.67" class="f">vmw-cli</text>
            <text x="35.07" y="1.67" class="f">--glob</text>
          </svg>
          <svg x="4200">
            <use xlink:href="#a"/>
            <use xlink:href="#b" x="41.996"/>
            <text y="1.67" class="f">[root@obpc</text>
            <text x="11.022" y="1.67" class="f">~]#</text>
            <text x="15.03" y="1.67" class="f">npm</text>
            <text x="19.038" y="1.67" class="f">install</text>
            <text x="27.054" y="1.67" class="f">vmw-cli</text>
            <text x="35.07" y="1.67" class="f">--globa</text>
          </svg>
          <svg x="4350">
            <use xlink:href="#a"/>
            <use xlink:href="#b" x="42.996"/>
            <use xlink:href="#5"/>
          </svg>
          <svg x="4500">
            <use xlink:href="#a"/>
            <use xlink:href="#b" x="-.004" y="2.146"/>
            <use xlink:href="#5"/>
          </svg>
          <svg x="4650">
            <use xlink:href="#a"/>
            <use xlink:href="#5"/>
          </svg>
          <svg x="4800">
            <use xlink:href="#a"/>
            <use xlink:href="#5"/>
            <use xlink:href="#6" y="2.171"/>
          </svg>
          <svg x="4950">
            <use xlink:href="#a"/>
            <use xlink:href="#5"/>
            <use xlink:href="#6" y="2.171"/>
          </svg>
          <svg x="5100">
            <use xlink:href="#a"/>
            <use xlink:href="#5"/>
            <text y="3.841" class="f">[</text>
            <text x="1.002" y="3.841" class="g">..................</text>
            <text x="19.038" y="3.841" class="f">]</text>
            <text x="21.042" y="3.841" class="f">/</text>
            <text x="23.046" y="3.841" class="f">fetchMetadata:</text>
            <path class="f" d="M38.076 2.171h4v2.171h-4z"/>
            <text x="38.076" y="3.841" class="a">sill</text>
            <text x="43.086" y="3.841" class="i">resolveWithNewModule</text>
            <text x="64.128" y="3.841" class="f">vmw-cli@1.0.6</text>
            <text x="78.156" y="3.841" class="f">checking</text>
            <text x="87.174" y="3.841" class="f">installable</text>
            <text x="99.198" y="3.841" class="f">status</text>
          </svg>
          <svg x="5250">
            <use xlink:href="#a"/>
            <use xlink:href="#5"/>
            <text y="3.841" class="f">[</text>
            <text x="1.002" y="3.841" class="g">..................</text>
            <text x="19.038" y="3.841" class="f">]</text>
            <text x="21.042" y="3.841" class="f">\</text>
            <text x="23.046" y="3.841" class="f">fetchMetadata:</text>
            <path class="f" d="M38.076 2.171h4v2.171h-4z"/>
            <text x="38.076" y="3.841" class="a">sill</text>
            <text x="43.086" y="3.841" class="i">resolveWithNewModule</text>
            <text x="64.128" y="3.841" class="f">symbol-observable@1.2.0</text>
            <text x="88.176" y="3.841" class="f">checking</text>
            <text x="97.194" y="3.841" class="f">installable</text>
            <text x="109.218" y="3.841" class="f">status</text>
          </svg>
          <svg x="5400">
            <use xlink:href="#a"/>
            <use xlink:href="#5"/>
            <text y="3.841" class="f">[</text>
            <path class="f" d="M1.002 2.171h2v2.171h-2z"/>
            <text x="1.002" y="3.841" class="a"/>
            <text x="3.006" y="3.841" class="g">................</text>
            <text x="19.038" y="3.841" class="f">]</text>
            <text x="21.042" y="3.841" class="f">\</text>
            <text x="23.046" y="3.841" class="f">fetchMetadata:</text>
            <path class="f" d="M38.076 2.171h4v2.171h-4z"/>
            <text x="38.076" y="3.841" class="a">sill</text>
            <text x="43.086" y="3.841" class="i">resolveWithNewModule</text>
            <text x="64.128" y="3.841" class="f">prepend-http@2.0.0</text>
            <text x="83.166" y="3.841" class="f">checking</text>
            <text x="92.184" y="3.841" class="f">installable</text>
            <text x="104.208" y="3.841" class="f">status</text>
          </svg>
          <svg x="5550">
            <use xlink:href="#a"/>
            <use xlink:href="#5"/>
            <text y="3.841" class="f">[</text>
            <path class="f" d="M1.002 2.171h2v2.171h-2z"/>
            <text x="1.002" y="3.841" class="a"/>
            <text x="3.006" y="3.841" class="g">................</text>
            <text x="19.038" y="3.841" class="f">]</text>
            <text x="21.042" y="3.841" class="f">|</text>
            <text x="23.046" y="3.841" class="f">fetchMetadata:</text>
            <path class="f" d="M38.076 2.171h4v2.171h-4z"/>
            <text x="38.076" y="3.841" class="a">sill</text>
            <text x="43.086" y="3.841" class="i">resolveWithNewModule</text>
            <text x="64.128" y="3.841" class="f">prepend-http@2.0.0</text>
            <text x="83.166" y="3.841" class="f">checking</text>
            <text x="92.184" y="3.841" class="f">installable</text>
            <text x="104.208" y="3.841" class="f">status</text>
          </svg>
          <svg x="5700">
            <use xlink:href="#a"/>
            <use xlink:href="#5"/>
            <text y="3.841" class="f">[</text>
            <path class="f" d="M1.002 2.171h2v2.171h-2z"/>
            <text x="1.002" y="3.841" class="a"/>
            <text x="3.006" y="3.841" class="g">................</text>
            <text x="19.038" y="3.841" class="f">]</text>
            <text x="21.042" y="3.841" class="f">-</text>
            <text x="23.046" y="3.841" class="f">fetchMetadata:</text>
            <path class="f" d="M38.076 2.171h4v2.171h-4z"/>
            <text x="38.076" y="3.841" class="a">sill</text>
            <text x="43.086" y="3.841" class="i">resolveWithNewModule</text>
            <text x="64.128" y="3.841" class="f">co@4.6.0</text>
            <text x="73.146" y="3.841" class="f">checking</text>
            <text x="82.164" y="3.841" class="f">installable</text>
            <text x="94.188" y="3.841" class="f">status</text>
          </svg>
          <svg x="5850">
            <use xlink:href="#a"/>
            <use xlink:href="#5"/>
            <text y="3.841" class="f">[</text>
            <path class="f" d="M1.002 2.171h2v2.171h-2z"/>
            <text x="1.002" y="3.841" class="a"/>
            <text x="3.006" y="3.841" class="g">................</text>
            <text x="19.038" y="3.841" class="f">]</text>
            <text x="21.042" y="3.841" class="f">\</text>
            <text x="23.046" y="3.841" class="f">fetchMetadata:</text>
            <path class="f" d="M38.076 2.171h4v2.171h-4z"/>
            <text x="38.076" y="3.841" class="a">sill</text>
            <text x="43.086" y="3.841" class="i">resolveWithNewModule</text>
            <text x="64.128" y="3.841" class="f">bcrypt-pbkdf@1.0.2</text>
            <text x="83.166" y="3.841" class="f">checking</text>
            <text x="92.184" y="3.841" class="f">installable</text>
            <text x="104.208" y="3.841" class="f">status</text>
          </svg>
          <svg x="6000">
            <use xlink:href="#a"/>
            <use xlink:href="#b" x="-.004" y="2.146"/>
            <use xlink:href="#5"/>
          </svg>
          <svg x="6150">
            <use xlink:href="#a"/>
            <use xlink:href="#b" x="2.996" y="2.146"/>
            <use xlink:href="#5"/>
            <use xlink:href="#7" y="2.171"/>
          </svg>
          <svg x="6300">
            <use xlink:href="#a"/>
            <use xlink:href="#b" x="3.996" y="2.146"/>
            <use xlink:href="#5"/>
            <use xlink:href="#7" y="2.171"/>
          </svg>
          <svg x="6450">
            <use xlink:href="#a"/>
            <use xlink:href="#b" x="7.996" y="2.146"/>
            <use xlink:href="#5"/>
            <use xlink:href="#8" y="2.171"/>
          </svg>
          <svg x="6600">
            <use xlink:href="#a"/>
            <use xlink:href="#b" x="8.996" y="2.146"/>
            <use xlink:href="#5"/>
            <use xlink:href="#8" y="2.171"/>
          </svg>
          <svg x="6750"><use xlink:href="#a"/><use xlink:href="#b" x="18.996" y="2.146"/><use xlink:href="#5"/>0<text y="3.841" class="j">npm</text><path class="k" d="M4.008 2.171h4v2.171h-4z"/><text x="4.008" y="3.841" class="l">WARN</text><text x="9.018" y="3.841" class="i">deprecated</text></svg>
          <svg x="6900">
            <use xlink:href="#a"/>
            <use xlink:href="#b" x="-.004" y="4.317"/>
            <use xlink:href="#5"/>
            <use xlink:href="#9" y="2.171"/>
          </svg>
          <svg x="7050">
            <use xlink:href="#a"/>
            <use xlink:href="#5"/>
            <use xlink:href="#9" y="2.171"/>
          </svg>
          <svg x="7200">
            <use xlink:href="#a"/>
            <use xlink:href="#5"/>
            <use xlink:href="#9" y="2.171"/>
            <text y="6.012" class="f">[</text>
            <path class="f" d="M1.002 4.342h6v2.171h-6z"/>
            <text x="1.002" y="6.012" class="a"/>
            <text x="7.014" y="6.012" class="g">............</text>
            <text x="19.038" y="6.012" class="f">]</text>
            <text x="21.042" y="6.012" class="f">-</text>
            <text x="23.046" y="6.012" class="f">diffTrees:</text>
            <path class="f" d="M34.068 4.342h4v2.171h-4z"/>
            <text x="34.068" y="6.012" class="a">sill</text>
            <text x="39.078" y="6.012" class="i">install</text>
            <text x="47.094" y="6.012" class="f">generateActionsToTake</text>
          </svg>
          <svg x="7350">
            <use xlink:href="#a"/>
            <use xlink:href="#5"/>
            <use xlink:href="#9" y="2.171"/>
            <use xlink:href="#10" y="4.342"/>
          </svg>
          <svg x="7500">
            <use xlink:href="#a"/>
            <use xlink:href="#5"/>
            <use xlink:href="#9" y="2.171"/>
            <use xlink:href="#10" y="4.342"/>
          </svg>
          <svg x="7650">
            <use xlink:href="#a"/>
            <use xlink:href="#5"/>
            <use xlink:href="#9" y="2.171"/>
            <text y="6.012" class="f">[</text>
            <path class="f" d="M1.002 4.342h8v2.171h-8z"/>
            <text x="1.002" y="6.012" class="a"/>
            <text x="9.018" y="6.012" class="g">..........</text>
            <text x="19.038" y="6.012" class="f">]</text>
            <text x="21.042" y="6.012" class="f">\</text>
            <text x="23.046" y="6.012" class="f">extract:responselike:</text>
            <path class="f" d="M45.09 4.342h4v2.171h-4z"/>
            <text x="45.09" y="6.012" class="a">sill</text>
            <text x="50.1" y="6.012" class="i">extract</text>
            <text x="58.116" y="6.012" class="f">tough-cookie@0.12.1</text>
          </svg>
          <svg x="7800">
            <use xlink:href="#a"/>
            <use xlink:href="#5"/>
            <use xlink:href="#9" y="2.171"/>
            <text y="6.012" class="f">[</text>
            <path class="f" d="M1.002 4.342h9v2.171h-9z"/>
            <text x="1.002" y="6.012" class="a"/>
            <text x="10.02" y="6.012" class="g">.........</text>
            <text x="19.038" y="6.012" class="f">]</text>
            <text x="21.042" y="6.012" class="f">|</text>
            <text x="23.046" y="6.012" class="f">extract:isstream:</text>
            <path class="f" d="M41.082 4.342h4v2.171h-4z"/>
            <text x="41.082" y="6.012" class="a">sill</text>
            <text x="46.092" y="6.012" class="i">extract</text>
            <text x="54.108" y="6.012" class="f">isstream@~0.1.2</text>
            <text x="70.14" y="6.012" class="f">extracted</text>
            <text x="80.16" y="6.012" class="f">to</text>
            <text x="83.166" y="6.012" class="f">/usr/lib/node_modules/.staging/isstream-9c0f57c6</text>
            <text x="132.264" y="6.012" class="f">(217ms)</text>
          </svg>
          <svg x="7950">
            <use xlink:href="#a"/>
            <use xlink:href="#5"/>
            <use xlink:href="#9" y="2.171"/>
            <text y="6.012" class="f">[</text>
            <path class="f" d="M1.002 4.342h12v2.171h-12z"/>
            <text x="1.002" y="6.012" class="a"/>
            <text x="13.026" y="6.012" class="g">......</text>
            <text x="19.038" y="6.012" class="f">]</text>
            <text x="21.042" y="6.012" class="f">-</text>
            <text x="23.046" y="6.012" class="f">extract:json-schema:</text>
            <path class="f" d="M44.088 4.342h4v2.171h-4z"/>
            <text x="44.088" y="6.012" class="a">sill</text>
            <text x="49.098" y="6.012" class="i">extract</text>
            <text x="57.114" y="6.012" class="f">json-schema@0.2.3</text>
            <text x="75.15" y="6.012" class="f">extracted</text>
            <text x="85.17" y="6.012" class="f">to</text>
            <text x="88.176" y="6.012" class="f">/usr/lib/node_modules/.staging/json-schema-c9f22f44</text>
            <text x="140.28" y="6.012" class="f">(270ms)</text>
          </svg>
          <svg x="8100">
            <use xlink:href="#a"/>
            <use xlink:href="#5"/>
            <use xlink:href="#9" y="2.171"/>
            <use xlink:href="#11" y="4.342"/>
          </svg>
          <svg x="8250">
            <use xlink:href="#a"/>
            <use xlink:href="#5"/>
            <use xlink:href="#9" y="2.171"/>
            <use xlink:href="#11" y="4.342"/>
          </svg>
          <svg x="8400">
            <use xlink:href="#a"/>
            <use xlink:href="#5"/>
            <use xlink:href="#9" y="2.171"/>
            <text y="6.012" class="f">[</text>
            <path class="f" d="M1.002 4.342h12v2.171h-12z"/>
            <text x="1.002" y="6.012" class="a"/>
            <text x="13.026" y="6.012" class="g">......</text>
            <text x="19.038" y="6.012" class="f">]</text>
            <text x="21.042" y="6.012" class="f">/</text>
            <text x="23.046" y="6.012" class="f">finalize:http-cache-semantics:</text>
            <path class="f" d="M54.108 4.342h4v2.171h-4z"/>
            <text x="54.108" y="6.012" class="a">sill</text>
            <text x="59.118" y="6.012" class="i">finalize</text>
            <text x="68.136" y="6.012" class="f">/usr/lib/node_modules/vmw-cli/node_modules/http-cache-semantics</text>
          </svg>
          <svg x="8550">
            <use xlink:href="#a"/>
            <use xlink:href="#5"/>
            <use xlink:href="#9" y="2.171"/>
            <use xlink:href="#12" y="4.342"/>
          </svg>
          <svg x="8700">
            <use xlink:href="#a"/>
            <use xlink:href="#5"/>
            <use xlink:href="#9" y="2.171"/>
            <use xlink:href="#12" y="4.342"/>
          </svg>
          <svg x="8850">
            <use xlink:href="#a"/>
            <use xlink:href="#5"/>
            <use xlink:href="#9" y="2.171"/>
            <text y="6.012" class="f">[</text>
            <path class="f" d="M1.002 4.342h12v2.171h-12z"/>
            <text x="1.002" y="6.012" class="a"/>
            <text x="13.026" y="6.012" class="g">......</text>
            <text x="19.038" y="6.012" class="f">]</text>
            <text x="21.042" y="6.012" class="f">\</text>
            <text x="23.046" y="6.012" class="f">refresh-package-json:tough-cookie:</text>
            <path class="f" d="M58.116 4.342h4v2.171h-4z"/>
            <text x="58.116" y="6.012" class="a">sill</text>
            <text x="63.126" y="6.012" class="i">refresh-package-json</text>
            <text x="84.168" y="6.012" class="f">/usr/lib/node_modules/vmw-cli/node_modules/safer-buffer</text>
          </svg>
          <svg x="9000">
            <use xlink:href="#a"/>
            <use xlink:href="#b" x="-.004" y="4.317"/>
            <use xlink:href="#5"/>
            <use xlink:href="#9" y="2.171"/>
          </svg>
          <svg x="9150">
            <use xlink:href="#a"/>
            <use xlink:href="#b" x="-.004" y="6.488"/>
            <use xlink:href="#5"/>
            <use xlink:href="#9" y="2.171"/>
            <use xlink:href="#13" y="4.342"/>
          </svg>
          <svg x="9300">
            <use xlink:href="#a"/>
            <use xlink:href="#5"/>
            <use xlink:href="#9" y="2.171"/>
            <use xlink:href="#13" y="4.342"/>
          </svg>
          <svg x="9450">
            <use xlink:href="#a"/>
            <use xlink:href="#5"/>
            <use xlink:href="#9" y="2.171"/>
            <use xlink:href="#13" y="4.342"/>
            <text y="8.183" class="f">[</text>
            <path class="f" d="M1.002 6.513h12v2.171h-12z"/>
            <text x="1.002" y="8.183" class="a"/>
            <text x="13.026" y="8.183" class="g">......</text>
            <text x="19.038" y="8.183" class="f">]</text>
            <text x="21.042" y="8.183" class="f">/</text>
            <text x="23.046" y="8.183" class="f">install:lowercase-keys:</text>
            <text x="47.094" y="8.183" class="m">info</text>
            <text x="52.104" y="8.183" class="i">lifecycle</text>
            <text x="62.124" y="8.183" class="f">lowercase-keys@1.0.1~install:</text>
            <text x="92.184" y="8.183" class="f">lowercase-keys@1.0.1</text>
          </svg>
          <svg x="9600">
            <use xlink:href="#a"/>
            <use xlink:href="#b" x="-.004" y="6.488"/>
            <use xlink:href="#5"/>
            <use xlink:href="#9" y="2.171"/>
            <use xlink:href="#13" y="4.342"/>
          </svg>
          <svg x="9750">
            <use xlink:href="#a"/>
            <use xlink:href="#b" x="-.004" y="10.83"/>
            <use xlink:href="#5"/>
            <use xlink:href="#9" y="2.171"/>
            <use xlink:href="#13" y="4.342"/>
            <use xlink:href="#14" y="6.513"/>
            <use xlink:href="#15" y="8.684"/>
          </svg>
          <svg x="9900">
            <use xlink:href="#a"/>
            <use xlink:href="#b" x="-.004" y="13.001"/>
            <use xlink:href="#5"/>
            <use xlink:href="#9" y="2.171"/>
            <use xlink:href="#13" y="4.342"/>
            <use xlink:href="#14" y="6.513"/>
            <use xlink:href="#15" y="8.684"/>
            <use xlink:href="#1" y="10.855"/>
          </svg>
          <svg x="10050">
            <use xlink:href="#a"/>
            <use xlink:href="#b" x="-.004" y="13.001"/>
            <use xlink:href="#5"/>
            <use xlink:href="#9" y="2.171"/>
            <use xlink:href="#13" y="4.342"/>
            <use xlink:href="#14" y="6.513"/>
            <use xlink:href="#15" y="8.684"/>
            <use xlink:href="#1" y="10.855"/>
          </svg>
        </svg>
      </g>
    </g>
  </svg>
</svg>
